<?xml version="1.0" encoding="iso-8859-1"?>
<!-- Uploaded to: SVG Repo, www.svgrepo.com, Generator: SVG Repo Mixer Tools -->
<svg fill="#fea386" height="800px" width="800px" version="1.1" id="Layer_1" xmlns="http://www.w3.org/2000/svg" xmlns:xlink="http://www.w3.org/1999/xlink" 
	 viewBox="0 0 512 512" xml:space="preserve">
<g>
	<g>
		<circle cx="221.091" cy="162.909" r="11.636"/>
	</g>
</g>
<g>
	<g>
		<circle cx="290.909" cy="162.909" r="11.636"/>
	</g>
</g>
<g>
	<g>
		<path d="M279.273,58.182h-11.636V46.545c0-6.982-4.655-11.636-11.636-11.636s-11.636,4.655-11.636,11.636v11.636h-11.636
			c-6.982,0-11.636,4.655-11.636,11.636s4.655,11.636,11.636,11.636h11.636v11.636c0,6.982,4.655,11.636,11.636,11.636
			s11.636-4.655,11.636-11.636V81.455h11.636c6.982,0,11.636-4.655,11.636-11.636S286.255,58.182,279.273,58.182z"/>
	</g>
</g>
<g>
	<g>
		<path d="M314.182,0H197.818c-32.582,0-58.182,25.6-58.182,58.182V128c0,23.273,8.145,77.964,9.309,79.127
			c2.327,19.782,9.309,38.4,22.109,53.527l2.327,3.491c19.782,24.436,50.036,38.4,82.618,38.4c32.582,0,61.673-13.964,82.618-38.4
			l2.327-3.491c12.8-15.127,19.782-33.745,22.109-52.364c0-2.327,9.309-57.018,9.309-80.291V58.182
			C372.364,25.6,346.764,0,314.182,0z M322.327,245.527L320,249.018c-15.127,19.782-38.4,30.255-64,30.255
			c-25.6,0-48.873-10.473-64-30.255l-2.327-3.491c-6.982-8.145-11.636-16.291-13.964-26.764l65.164-8.146
			c10.473-1.164,20.945-1.164,31.418,0l65.164,8.146C333.964,229.236,329.309,238.545,322.327,245.527z M340.945,196.655
			l-66.327-8.145c-12.8-1.164-25.6-1.164-37.236,0l-66.327,8.145c-2.327-12.8-5.818-38.4-6.982-57.018h185.018
			C346.764,158.255,343.273,183.855,340.945,196.655z M349.091,116.364H162.909V58.182c0-19.782,15.127-34.909,34.909-34.909
			h116.364c19.782,0,34.909,15.127,34.909,34.909V116.364z"/>
	</g>
</g>
<g>
	<g>
		<path d="M407.273,342.109l-79.127-16.291c-3.491-1.164-6.982,0-9.309,2.327l-47.709,39.564c-8.146,6.982-20.945,6.982-30.255,0
			c-4.655-4.655-12.8-3.491-16.291,1.164c-4.655,4.655-3.491,12.8,1.164,16.291c5.818,4.655,11.636,6.982,18.618,9.309v58.182
			c0,6.982,4.655,11.636,11.636,11.636c6.982,0,11.636-4.655,11.636-11.636v-58.182c6.982-1.164,12.8-4.655,18.618-9.309
			l43.055-36.073l73.309,15.127c16.291,3.491,27.927,17.455,27.927,33.745v79.127c0,6.982-4.655,11.636-11.636,11.636H93.091
			c-6.982,0-11.636-4.655-11.636-11.636v-77.964c0-16.291,11.636-31.418,27.927-33.745l77.964-15.127h80.291
			c6.982,0,11.636-4.655,11.636-11.636c0-6.982-4.655-11.636-11.636-11.636h-81.455c-1.164,0-1.164,0-2.327,0l-79.127,15.127
			c-26.764,5.818-46.545,29.091-46.545,57.018v77.964c0,19.782,15.127,34.909,34.909,34.909h325.818
			c19.782,0,34.909-15.127,34.909-34.909v-77.964C453.818,371.2,434.036,346.764,407.273,342.109z"/>
	</g>
</g>
<g>
	<g>
		<path d="M395.636,418.909h-46.545c-6.982,0-11.636,4.655-11.636,11.636s4.655,11.636,11.636,11.636h46.545
			c6.982,0,11.636-4.655,11.636-11.636S402.618,418.909,395.636,418.909z"/>
	</g>
</g>
</svg>