<?xml version="1.0" encoding="iso-8859-1"?>
<!-- Uploaded to: SVG Repo, www.svgrepo.com, Generator: SVG Repo Mixer Tools -->
<svg fill="#fea386" height="800px" width="800px" version="1.1" id="Layer_1" xmlns="http://www.w3.org/2000/svg" xmlns:xlink="http://www.w3.org/1999/xlink" 
	 viewBox="0 0 512 512" xml:space="preserve">
<g>
	<g>
		<path d="M422.4,193.164l-52.364-60.509c-5.818-5.818-8.145-13.964-8.145-23.273V90.764c13.964-4.655,23.273-17.455,23.273-32.582
			V34.909C385.164,15.127,370.036,0,350.255,0H162.909C143.127,0,128,15.127,128,34.909v23.273
			c0,19.782,15.127,34.909,34.909,34.909h139.636c6.982,0,11.636-4.655,11.636-11.636s-4.655-11.636-11.636-11.636H162.909
			c-6.982,0-11.636-4.655-11.636-11.636V34.909c0-6.982,4.655-11.636,11.636-11.636h186.182c6.982,0,11.636,4.655,11.636,11.636
			v23.273c0,6.982-4.655,11.636-11.636,11.636c-6.982,0-11.636,4.655-11.636,11.636v29.091c0,13.964,4.655,27.927,13.964,38.4
			l52.364,60.509c9.309,10.473,13.964,24.436,13.964,38.4v229.236c0,6.982-4.655,11.636-11.636,11.636H104.727
			c-6.982,0-11.636-4.655-11.636-11.636V247.855c0-15.127,4.655-27.927,13.964-38.4l64-73.309
			c4.655-4.655,3.491-11.636-1.164-16.291s-11.636-3.491-16.291,1.164l-64,73.309c-12.8,13.964-19.782,33.745-19.782,53.527v229.236
			c0,19.782,15.127,34.909,34.909,34.909h302.545c19.782,0,34.909-15.127,34.909-34.909V247.855
			C442.182,228.073,435.2,208.291,422.4,193.164z"/>
	</g>
</g>
<g>
	<g>
		<path d="M384,232.727H128c-6.982,0-11.636,4.655-11.636,11.636v186.182c0,6.982,4.655,11.636,11.636,11.636h256
			c6.982,0,11.636-4.655,11.636-11.636V244.364C395.636,237.382,390.982,232.727,384,232.727z M372.364,418.909H139.636V256h232.727
			V418.909z"/>
	</g>
</g>
<g>
	<g>
		<path d="M302.545,325.818h-34.909v-34.909c0-6.982-4.655-11.636-11.636-11.636s-11.636,4.655-11.636,11.636v34.909h-34.909
			c-6.982,0-11.636,4.655-11.636,11.636c0,6.982,4.655,11.636,11.636,11.636h34.909V384c0,6.982,4.655,11.636,11.636,11.636
			s11.636-4.655,11.636-11.636v-34.909h34.909c6.982,0,11.636-4.655,11.636-11.636C314.182,330.473,309.527,325.818,302.545,325.818
			z"/>
	</g>
</g>
</svg>