<?xml version="1.0" encoding="iso-8859-1"?>
<!-- Uploaded to: SVG Repo, www.svgrepo.com, Generator: SVG Repo Mixer Tools -->
<svg fill="#fea386" height="800px" width="800px" version="1.1" id="Layer_1" xmlns="http://www.w3.org/2000/svg" xmlns:xlink="http://www.w3.org/1999/xlink" 
	 viewBox="0 0 512 512" xml:space="preserve">
<g>
	<g>
		<path d="M477.091,93.091H34.909C15.127,93.091,0,108.218,0,128v58.182c0,19.782,15.127,34.909,34.909,34.909h104.727
			c0,6.982,4.655,11.636,11.636,11.636c6.982,0,11.636-4.655,11.636-11.636v-69.818c0-6.982-4.655-11.636-11.636-11.636
			c-6.982,0-11.636,4.655-11.636,11.636v46.545H34.909c-6.982,0-11.636-4.655-11.636-11.636V128c0-6.982,4.655-11.636,11.636-11.636
			h442.182c6.982,0,11.636,4.655,11.636,11.636v58.182c0,6.982-4.655,11.636-11.636,11.636h-69.818
			c-6.982,0-11.636,4.655-11.636,11.636c0,6.982,4.655,11.636,11.636,11.636h69.818c19.782,0,34.909-15.127,34.909-34.909V128
			C512,108.218,496.873,93.091,477.091,93.091z"/>
	</g>
</g>
<g>
	<g>
		<path d="M360.727,139.636c-6.982,0-11.636,4.655-11.636,11.636v46.545H197.818c-6.982,0-11.636,4.655-11.636,11.636
			c0,6.982,4.655,11.636,11.636,11.636h151.273c0,6.982,4.655,11.636,11.636,11.636s11.636-4.655,11.636-11.636v-69.818
			C372.364,144.291,367.709,139.636,360.727,139.636z"/>
	</g>
</g>
<g>
	<g>
		<path d="M477.091,244.364c-6.982,0-11.636,4.655-11.636,11.636v197.818c0,6.982-4.655,11.636-11.636,11.636H58.182
			c-6.982,0-11.636-4.655-11.636-11.636V256c0-6.982-4.655-11.636-11.636-11.636c-6.982,0-11.636,4.655-11.636,11.636v197.818
			c0,19.782,15.127,34.909,34.909,34.909h395.636c19.782,0,34.909-15.127,34.909-34.909V256
			C488.727,249.018,484.073,244.364,477.091,244.364z"/>
	</g>
</g>
<g>
	<g>
		<path d="M314.182,23.273H197.818c-19.782,0-34.909,15.127-34.909,34.909v11.636c0,6.982,4.655,11.636,11.636,11.636
			s11.636-4.655,11.636-11.636V58.182c0-6.982,4.655-11.636,11.636-11.636h116.364c6.982,0,11.636,4.655,11.636,11.636v11.636
			c0,6.982,4.655,11.636,11.636,11.636c6.982,0,11.636-4.655,11.636-11.636V58.182C349.091,38.4,333.964,23.273,314.182,23.273z"/>
	</g>
</g>
<g>
	<g>
		<path d="M325.818,302.545h-34.909v-34.909c0-6.982-4.655-11.636-11.636-11.636h-46.545c-6.982,0-11.636,4.655-11.636,11.636
			v34.909h-34.909c-6.982,0-11.636,4.655-11.636,11.636v46.545c0,6.982,4.655,11.636,11.636,11.636h34.909v34.909
			c0,6.982,4.655,11.636,11.636,11.636h46.545c6.982,0,11.636-4.655,11.636-11.636c0-6.982-4.655-11.636-11.636-11.636h-34.909
			v-34.909c0-6.982-4.655-11.636-11.636-11.636h-34.909v-23.273h34.909c6.982,0,11.636-4.655,11.636-11.636v-34.909h23.273v34.909
			c0,6.982,4.655,11.636,11.636,11.636h34.909v23.273h-34.909c-6.982,0-11.636,4.655-11.636,11.636s4.655,11.636,11.636,11.636
			h46.545c6.982,0,11.636-4.655,11.636-11.636v-46.545C337.455,307.2,332.8,302.545,325.818,302.545z"/>
	</g>
</g>
</svg>