<?xml version="1.0" encoding="iso-8859-1"?>
<!-- Uploaded to: SVG Repo, www.svgrepo.com, Generator: SVG Repo Mixer Tools -->
<svg fill="#fea386" height="800px" width="800px" version="1.1" id="Layer_1" xmlns="http://www.w3.org/2000/svg" xmlns:xlink="http://www.w3.org/1999/xlink" 
	 viewBox="0 0 512 512" xml:space="preserve">
<g>
	<g>
		<path d="M432.873,34.909C410.764,12.8,380.509,0,349.091,0c-31.418,0-61.673,12.8-83.782,34.909
			c-8.145,8.145-15.127,19.782-19.782,27.927l-11.636,25.6c-2.327,5.818,0,12.8,5.818,15.127c5.818,2.327,12.8,0,15.127-5.818
			l11.636-24.436c3.491-6.982,9.309-16.291,16.291-22.109c17.455-17.455,40.727-27.927,66.327-27.927
			c25.6,0,48.873,10.473,67.491,27.927c23.273,23.273,31.418,53.527,20.945,82.618c-13.964,39.564-30.255,100.073-43.055,145.455
			l-5.818,20.945c-10.473,38.4-4.655,148.945-4.655,153.6c0,19.782-15.127,34.909-34.909,34.909
			c-19.782,0-34.909-15.127-34.909-34.909v-38.4c0-23.273-9.309-45.382-25.6-61.673c-18.618-18.618-47.709-18.618-65.164,0
			c-16.291,16.291-25.6,38.4-25.6,61.673v38.4c0,19.782-15.127,34.909-34.909,34.909c-19.782,0-34.909-15.127-34.909-34.909
			c0-4.655,5.818-116.364-4.655-154.764l-5.818-20.945C105.891,233.891,89.6,172.218,74.473,132.655
			C64,104.727,70.982,74.473,95.418,51.2c31.418-31.418,81.455-37.236,119.854-12.8c5.818,3.491,12.8,2.327,16.291-3.491
			c2.327-4.655,1.164-11.636-4.655-15.127C180.364-11.636,118.691-4.655,79.127,34.909c-30.255,30.255-39.564,69.818-26.764,107.055
			c13.964,38.4,30.255,98.909,41.891,143.127l5.818,20.945c10.473,34.909,4.655,146.618,4.655,147.782
			c0,32.582,25.6,58.182,58.182,58.182c32.582,0,58.182-25.6,58.182-58.182v-38.4c0-17.455,6.982-32.582,18.618-45.382
			c9.309-9.309,23.273-9.309,32.582,0c11.636,11.636,18.618,27.927,18.618,45.382v38.4c0,32.582,25.6,58.182,58.182,58.182
			c32.582,0,58.182-25.6,58.182-58.182c-1.164-31.418-3.491-118.691,4.655-147.782l5.818-20.945
			c11.636-44.218,27.927-104.727,41.891-143.127C472.436,104.727,463.127,65.164,432.873,34.909z"/>
	</g>
</g>
<g>
	<g>
		<path d="M158.255,46.545c-32.582,0-58.182,25.6-58.182,58.182c0,6.982,4.655,11.636,11.636,11.636s11.636-4.655,11.636-11.636
			c0-19.782,15.127-34.909,34.909-34.909c6.982,0,11.636-4.655,11.636-11.636S165.236,46.545,158.255,46.545z"/>
	</g>
</g>
</svg>