<?xml version="1.0" encoding="utf-8"?><!-- Uploaded to: SVG Repo, www.svgrepo.com, Generator: SVG Repo Mixer Tools -->
<svg width="64px" height="64px" viewBox="0 0 32.00 32.00" xmlns="http://www.w3.org/2000/svg" fill="#fea386" stroke="#fea386" stroke-width="0.00032" transform="matrix(1, 0, 0, 1, 0, 0)rotate(0)"><g id="SVGRepo_bgCarrier" stroke-width="0" transform="translate(5.6,5.6), scale(0.65)"></g><g id="SVGRepo_tracerCarrier" stroke-linecap="round" stroke-linejoin="round" stroke="#CCCCCC" stroke-width="0.768"></g><g id="SVGRepo_iconCarrier"><path d="m16 0c8.836556 0 16 7.163444 16 16s-7.163444 16-16 16-16-7.163444-16-16 7.163444-16 16-16zm.0790314 11.11h-.1612085c-.2359047.0138648-.4678335.1109181-.6480754.2911601l-5.65685428 5.6568543c-.39052429.3905243-.39052429 1.0236892 0 1.4142135.39052428.3905243 1.02368928.3905243 1.41421358 0l4.9717474-4.9712279 4.9708933 4.9712279c.3905243.3905243 1.0236892.3905243 1.4142135 0s.3905243-1.0236892 0-1.4142135l-5.6568542-5.6568543c-.180242-.180242-.4121708-.2772953-.6480754-.2911601z" fill="#fea386" fill-rule="evenodd"></path></g></svg>